<?xml version="1.0" encoding="UTF-8" standalone="no"?>
<!DOCTYPE svg PUBLIC "-//W3C//DTD SVG 1.1//EN" "http://www.w3.org/Graphics/SVG/1.1/DTD/svg11.dtd">
<svg width="100%" height="100%" viewBox="0 0 17 17" version="1.1" xmlns="http://www.w3.org/2000/svg" xmlns:xlink="http://www.w3.org/1999/xlink" xml:space="preserve" xmlns:serif="http://www.serif.com/" style="fill-rule:evenodd;clip-rule:evenodd;stroke-linejoin:round;stroke-miterlimit:2;">
    <g id="Capa-1" serif:id="Capa 1">
    </g>
    <g id="Artboard1" transform="matrix(1,0,0,1,0,-29.9863)">
        <rect x="0" y="29.986" width="16.029" height="16.029" style="fill:none;"/>
        <clipPath id="_clip1">
            <rect x="0" y="29.986" width="16.029" height="16.029"/>
        </clipPath>
        <g clip-path="url(#_clip1)">
            <g id="g3273" transform="matrix(0.548358,0,0,-0.548358,9.02331,42.3531)">
                <path id="path3275" d="M0,0C0.636,0.449 1.109,0.411 1.676,0.976C2.201,1.498 1.486,2.112 0.952,2.508C0.377,2.933 0.729,3.008 1.457,3.15C3.515,3.552 6.267,4.224 7.412,4.542C10.272,5.334 12.798,7.359 12.776,9.685C12.761,11.261 11.645,12.623 10.473,13.577C9.301,14.532 8.047,15.085 7.651,15.199C6.824,15.438 7.26,14.888 7.26,14.888C7.26,14.888 8.001,14.624 9.563,13.458C10.712,12.6 11.8,11.289 11.813,9.873C11.85,6.193 6.826,5.085 6.826,5.085C6.826,5.085 11.379,6.435 11.346,9.868C11.332,11.333 9.787,13.238 7.694,14.621C6.15,15.641 4.36,16.21 3.978,16.272C2.901,16.446 3.418,15.921 3.418,15.921C3.418,15.921 4.832,15.566 6.662,14.316C8.159,13.293 9.581,11.651 9.599,9.729C9.624,7.267 7.152,5.983 6.068,5.44C4.405,4.607 2.613,4.195 2.613,4.195C2.613,4.195 4.664,4.735 6.29,5.769C7.774,6.714 9.072,8.308 9.058,9.723C9.032,12.354 6.267,14.45 3.953,15.656C2.728,16.295 1.618,16.669 1.136,16.773C0.594,16.891 -0.182,16.92 0.734,16.35C1.416,15.927 2.371,15.308 3.177,14.565C4.638,13.216 5.941,11.33 5.957,9.619C5.978,7.428 4.492,5.717 2.826,5.034C1.318,4.417 -0.171,4.246 -0.637,4.151C-1.337,4.009 -1.294,3.431 -1.182,3.297C-0.827,2.871 0.076,2.546 0.076,1.807C0.076,0.532 -1.633,0.385 -1.84,0.385C-2.045,0.385 -3.755,0.532 -3.755,1.807C-3.755,2.546 -2.851,2.871 -2.497,3.297C-2.385,3.431 -2.342,4.009 -3.042,4.151C-3.508,4.246 -4.997,4.417 -6.505,5.034C-8.172,5.717 -9.658,7.428 -9.636,9.619C-9.62,11.33 -8.317,13.216 -6.855,14.565C-6.05,15.308 -5.095,15.927 -4.413,16.35C-3.496,16.92 -4.272,16.891 -4.815,16.773C-5.297,16.669 -6.407,16.295 -7.633,15.656C-9.946,14.45 -12.711,12.354 -12.737,9.723C-12.751,8.308 -11.453,6.714 -9.969,5.769C-8.343,4.735 -6.292,4.195 -6.292,4.195C-6.292,4.195 -8.085,4.607 -9.746,5.44C-10.831,5.983 -13.303,7.267 -13.279,9.729C-13.26,11.651 -11.838,13.293 -10.342,14.316C-8.512,15.566 -7.097,15.921 -7.097,15.921C-7.097,15.921 -6.58,16.446 -7.657,16.272C-8.039,16.21 -9.828,15.641 -11.372,14.621C-13.466,13.238 -15.011,11.333 -15.025,9.868C-15.059,6.435 -10.505,5.085 -10.505,5.085C-10.505,5.085 -15.528,6.193 -15.493,9.873C-15.479,11.289 -14.391,12.6 -13.242,13.458C-11.68,14.624 -10.939,14.888 -10.939,14.888C-10.939,14.888 -10.503,15.438 -11.33,15.199C-11.726,15.085 -12.98,14.532 -14.152,13.577C-15.324,12.623 -16.439,11.261 -16.455,9.685C-16.477,7.359 -13.951,5.334 -11.091,4.542C-9.946,4.224 -7.194,3.552 -5.137,3.15C-4.408,3.008 -4.056,2.933 -4.631,2.508C-5.166,2.112 -5.88,1.498 -5.356,0.976C-4.788,0.411 -4.314,0.449 -3.679,0C-3.043,-0.449 -2.808,-0.969 -1.831,-0.969C-0.855,-0.969 -0.636,-0.449 0,0" style="fill:url(#_Linear2);fill-rule:nonzero;"/>
            </g>
        </g>
    </g>
    <defs>
        <linearGradient id="_Linear2" x1="0" y1="0" x2="1" y2="0" gradientUnits="userSpaceOnUse" gradientTransform="matrix(29.2313,0,0,17.8115,-16.4551,7.93673)"><stop offset="0" style="stop-color:white;stop-opacity:1"/><stop offset="1" style="stop-color:white;stop-opacity:1"/></linearGradient>
    </defs>
</svg>
